<mxfile host="Electron" modified="2024-05-12T18:17:07.695Z" agent="Mozilla/5.0 (X11; Linux x86_64) AppleWebKit/537.36 (KHTML, like Gecko) draw.io/22.1.16 Chrome/120.0.6099.109 Electron/28.1.0 Safari/537.36" etag="M6T1nH1gFVtGbHGRh4E_" version="22.1.16" type="device">
  <diagram name="Page-1" id="yECL2fiYvFoWHdX7srcr">
    <mxGraphModel dx="1434" dy="900" grid="0" gridSize="10" guides="1" tooltips="1" connect="1" arrows="1" fold="1" page="0" pageScale="1" pageWidth="850" pageHeight="1100" math="0" shadow="0">
      <root>
        <mxCell id="0" />
        <mxCell id="1" parent="0" />
      </root>
    </mxGraphModel>
  </diagram>
</mxfile>
